<?xml version="1.0" encoding="UTF-8" standalone="no"?>
<!DOCTYPE svg PUBLIC "-//W3C//DTD SVG 1.1//EN" "http://www.w3.org/Graphics/SVG/1.1/DTD/svg11.dtd">
<svg width="100%" height="100%" viewBox="0 0 900 300" version="1.1" xmlns="http://www.w3.org/2000/svg" xmlns:xlink="http://www.w3.org/1999/xlink" xml:space="preserve" xmlns:serif="http://www.serif.com/" style="fill-rule:evenodd;clip-rule:evenodd;stroke-linecap:round;stroke-linejoin:round;stroke-miterlimit:1;">
    <g transform="matrix(1,0,0,1,-1.92771,2.29607)">
        <g>
            <g transform="matrix(1.14531,0,0,1.14531,-32.8637,-1.46957)">
                <g transform="matrix(1,0,0,1,269.9,181.693)">
                    <g>
                        <g>
                            <path d="M11.521,0L11.521,-97.458L24.708,-97.458L24.708,0L11.521,0ZM20.5,0L20.5,-12.083L76.396,-12.083L76.396,0L20.5,0ZM20.5,-44.083L20.5,-55.604L71.75,-55.604L71.75,-44.083L20.5,-44.083ZM20.5,-85.375L20.5,-97.458L75.688,-97.458L75.688,-85.375L20.5,-85.375Z" style="fill:white;fill-rule:nonzero;"/>
                        </g>
                    </g>
                </g>
                <g transform="matrix(1,0,0,1,350.362,181.693)">
                    <g>
                        <g>
                            <path d="M56.438,0L56.438,-38.896C56.438,-43.948 54.844,-48.115 51.667,-51.396C48.484,-54.672 44.365,-56.312 39.313,-56.312C35.948,-56.312 32.958,-55.562 30.333,-54.062C27.708,-52.562 25.646,-50.5 24.146,-47.875C22.646,-45.26 21.896,-42.271 21.896,-38.896L16.708,-41.854C16.708,-46.896 17.833,-51.38 20.083,-55.312C22.333,-59.255 25.464,-62.375 29.479,-64.667C33.505,-66.958 38.047,-68.104 43.104,-68.104C48.156,-68.104 52.63,-66.839 56.521,-64.312C60.406,-61.781 63.469,-58.484 65.708,-54.417C67.958,-50.344 69.083,-46.01 69.083,-41.417L69.083,0L56.438,0ZM9.271,0L9.271,-66.708L21.896,-66.708L21.896,0L9.271,0Z" style="fill:white;fill-rule:nonzero;"/>
                        </g>
                    </g>
                </g>
                <g transform="matrix(1,0,0,1,424.927,181.693)">
                    <g>
                        <g>
                            <path d="M32.146,0L1.542,-66.708L15.583,-66.708L40.167,-10.396L32.021,-10.396L56.729,-66.708L70.208,-66.708L39.604,0L32.146,0Z" style="fill:white;fill-rule:nonzero;"/>
                        </g>
                    </g>
                </g>
                <g transform="matrix(1,0,0,1,494.296,181.693)">
                    <g>
                        <g>
                            <path d="M40.167,1.396C33.51,1.396 27.521,-0.125 22.188,-3.167C16.854,-6.208 12.635,-10.344 9.542,-15.583C6.458,-20.833 4.917,-26.776 4.917,-33.417C4.917,-39.969 6.438,-45.865 9.479,-51.104C12.521,-56.354 16.635,-60.5 21.833,-63.542C27.026,-66.583 32.854,-68.104 39.313,-68.104C45.49,-68.104 50.943,-66.698 55.667,-63.896C60.401,-61.089 64.104,-57.198 66.771,-52.229C69.438,-47.271 70.771,-41.651 70.771,-35.375C70.771,-34.443 70.719,-33.437 70.625,-32.354C70.526,-31.281 70.339,-30.047 70.063,-28.646L13.771,-28.646L13.771,-39.167L63.333,-39.167L58.688,-35.104C58.688,-39.604 57.885,-43.417 56.292,-46.542C54.708,-49.677 52.464,-52.109 49.563,-53.833C46.656,-55.568 43.151,-56.437 39.042,-56.437C34.734,-56.437 30.943,-55.5 27.667,-53.625C24.385,-51.76 21.859,-49.146 20.083,-45.771C18.302,-42.406 17.417,-38.427 17.417,-33.833C17.417,-29.151 18.344,-25.052 20.208,-21.542C22.083,-18.042 24.75,-15.333 28.208,-13.417C31.677,-11.5 35.667,-10.542 40.167,-10.542C43.901,-10.542 47.339,-11.193 50.479,-12.5C53.615,-13.802 56.313,-15.771 58.563,-18.396L66.708,-10.104C63.51,-6.365 59.594,-3.51 54.958,-1.542C50.333,0.417 45.401,1.396 40.167,1.396Z" style="fill:white;fill-rule:nonzero;"/>
                        </g>
                    </g>
                </g>
                <g transform="matrix(1,0,0,1,567.175,181.693)">
                    <g>
                        <g>
                            <path d="M9.271,0L9.271,-66.708L21.896,-66.708L21.896,0L9.271,0ZM21.896,-38.062L17.125,-40.167C17.125,-48.677 19.089,-55.464 23.021,-60.521C26.948,-65.573 32.615,-68.104 40.021,-68.104C43.396,-68.104 46.438,-67.51 49.146,-66.333C51.854,-65.167 54.38,-63.229 56.729,-60.521L48.438,-51.958C47.031,-53.458 45.49,-54.531 43.813,-55.187C42.13,-55.839 40.167,-56.167 37.917,-56.167C33.234,-56.167 29.396,-54.667 26.396,-51.667C23.396,-48.677 21.896,-44.146 21.896,-38.062Z" style="fill:white;fill-rule:nonzero;"/>
                        </g>
                    </g>
                </g>
                <g transform="matrix(1,0,0,1,623.625,181.693)">
                    <g>
                        <g>
                            <path d="M36.938,29.354C30.104,29.354 24.042,28.089 18.75,25.562C13.458,23.031 9.219,19.469 6.042,14.875L14.188,6.604C16.896,10.062 20.115,12.698 23.854,14.521C27.604,16.354 32.052,17.271 37.208,17.271C44.042,17.271 49.443,15.464 53.417,11.854C57.401,8.255 59.396,3.417 59.396,-2.667L59.396,-19.229L61.646,-34.271L59.396,-49.146L59.396,-66.708L72.042,-66.708L72.042,-2.667C72.042,3.693 70.563,9.26 67.604,14.042C64.656,18.818 60.542,22.562 55.25,25.271C49.958,27.99 43.854,29.354 36.938,29.354ZM36.938,-1.125C30.854,-1.125 25.396,-2.573 20.563,-5.479C15.74,-8.38 11.927,-12.38 9.125,-17.479C6.318,-22.573 4.917,-28.312 4.917,-34.687C4.917,-41.047 6.318,-46.729 9.125,-51.729C11.927,-56.74 15.74,-60.719 20.563,-63.667C25.396,-66.625 30.854,-68.104 36.938,-68.104C42.172,-68.104 46.802,-67.068 50.833,-65C54.859,-62.943 58.063,-60.068 60.438,-56.375C62.823,-52.677 64.115,-48.354 64.313,-43.396L64.313,-25.687C64.031,-20.823 62.698,-16.542 60.313,-12.833C57.922,-9.135 54.714,-6.26 50.688,-4.208C46.656,-2.151 42.073,-1.125 36.938,-1.125ZM39.458,-13.062C43.583,-13.062 47.208,-13.948 50.333,-15.729C53.469,-17.505 55.88,-20.005 57.563,-23.229C59.255,-26.464 60.104,-30.234 60.104,-34.542C60.104,-38.844 59.234,-42.609 57.5,-45.833C55.76,-49.068 53.354,-51.594 50.271,-53.417C47.188,-55.25 43.531,-56.167 39.313,-56.167C35.104,-56.167 31.406,-55.25 28.229,-53.417C25.047,-51.594 22.542,-49.068 20.708,-45.833C18.885,-42.609 17.979,-38.896 17.979,-34.687C17.979,-30.464 18.885,-26.714 20.708,-23.437C22.542,-20.172 25.068,-17.625 28.292,-15.792C31.526,-13.969 35.25,-13.062 39.458,-13.062Z" style="fill:white;fill-rule:nonzero;"/>
                        </g>
                    </g>
                </g>
                <g transform="matrix(1,0,0,1,702.543,181.693)">
                    <g>
                        <g>
                            <path d="M40.167,1.396C33.51,1.396 27.521,-0.125 22.188,-3.167C16.854,-6.208 12.635,-10.344 9.542,-15.583C6.458,-20.833 4.917,-26.776 4.917,-33.417C4.917,-39.969 6.438,-45.865 9.479,-51.104C12.521,-56.354 16.635,-60.5 21.833,-63.542C27.026,-66.583 32.854,-68.104 39.313,-68.104C45.49,-68.104 50.943,-66.698 55.667,-63.896C60.401,-61.089 64.104,-57.198 66.771,-52.229C69.438,-47.271 70.771,-41.651 70.771,-35.375C70.771,-34.443 70.719,-33.437 70.625,-32.354C70.526,-31.281 70.339,-30.047 70.063,-28.646L13.771,-28.646L13.771,-39.167L63.333,-39.167L58.688,-35.104C58.688,-39.604 57.885,-43.417 56.292,-46.542C54.708,-49.677 52.464,-52.109 49.563,-53.833C46.656,-55.568 43.151,-56.437 39.042,-56.437C34.734,-56.437 30.943,-55.5 27.667,-53.625C24.385,-51.76 21.859,-49.146 20.083,-45.771C18.302,-42.406 17.417,-38.427 17.417,-33.833C17.417,-29.151 18.344,-25.052 20.208,-21.542C22.083,-18.042 24.75,-15.333 28.208,-13.417C31.677,-11.5 35.667,-10.542 40.167,-10.542C43.901,-10.542 47.339,-11.193 50.479,-12.5C53.615,-13.802 56.313,-15.771 58.563,-18.396L66.708,-10.104C63.51,-6.365 59.594,-3.51 54.958,-1.542C50.333,0.417 45.401,1.396 40.167,1.396Z" style="fill:white;fill-rule:nonzero;"/>
                        </g>
                    </g>
                </g>
            </g>
            <g transform="matrix(0.1742,0,0,0.1742,9.84694,22.2798)">
                <path d="M720.009,161.649L1203.52,440.834L1203.52,999.168L720.009,1278.35L236.462,999.168L236.462,440.834L720.009,161.649Z" style="fill:none;fill-rule:nonzero;stroke:white;stroke-width:147.75px;"/>
            </g>
        </g>
    </g>
</svg>
